<?xml version="1.0"?><svg width="657.608" height="308.712" xmlns="http://www.w3.org/2000/svg">
 <title>tuna</title>

 <g>
  <title>Layer 1</title>
  <g display=" none" id="layer4">
   <path d="m428.076721,5c-26.947021,10.992981 -52.412994,22.923004 -95.906006,76.75l-9.312012,-7.687012c-2.509033,-1.72998 -6.794006,-2.927002 -9.937988,-4.656006l-8.843994,-2.937988l-9.781006,-4.281006l-6.937012,-1.875c-6.75,-0.371002 -12.625,-1.397003 -13.25,-6.531006c-2.932983,-1.056976 -6.263977,3.507019 -8.875,-2.437988c-2.809021,0.638 -5.65802,1.415009 -7.125,-3.312012l-4.406998,-2.062988c-5.688019,1.895996 -7.171997,-1.821014 -8.843018,-5.281006c-4.187988,2.391998 -6.722992,1.84201 -8.156982,-3.875c-5.136993,1.608002 -9.300995,-0.169006 -11.687012,-8.187988c-5.744995,-0.276001 -8.485992,-4.675995 -8.718994,-12.531006c-2.391998,0.727997 -7.088013,0.963989 -7.093994,-9.031006c-11.445007,23.03302 -17.878998,46.562012 -22.468002,70.281006l8.499985,0.343994c-61.915985,7.877014 -104.225983,27.824005 -135.718987,47.406006c-22.604004,14.054016 -53.089699,31.513977 -52.281502,37.781006c0.800598,6.208008 41.955498,21.512024 36.843498,23.75c-3.474998,1.521973 -42.858902,-2.820984 -38.780998,5.781982c8.465401,9.778992 41.910004,26.734009 84.156006,38.812012c29.416992,8.409973 63.084991,14.059998 95.187988,16.875c16.552002,16.075012 13.177002,34.916992 37.5,55.093994c5.455994,3.598022 3.638,-11.990967 10.062012,-26.093994c6.856995,-15.052002 8.371002,-27.585022 -5.437012,-26.875l-0.875,-0.062012c48.534012,0.421021 90.24202,-11.47998 134.969009,-25.75c33.906006,29.091003 53.848999,34.143982 74.968018,38.468018c-17.914001,-6.273987 -37.427002,-20.244019 -41.875,-30.437012c-4.268036,-9.78302 21.258972,-15.973999 5.312988,-20.281006c4.156982,-1.307007 8.380981,-2.606018 12.625,-3.906982c2.766968,0.739014 4.552002,1.948975 5.968994,3.343994c1.359985,-2.794983 4.734985,-2.026978 7.875,-1.687012c-1.194,-1.687012 -2.484009,-3.291992 -4.156982,-4.593994c4.212006,-1.253967 8.406982,-2.541016 12.625,-3.812988c2.407959,0.742004 4.007996,1.901978 5.312988,3.187988c1.359985,-2.794983 4.734985,-1.995972 7.875,-1.656006c-1.117004,-1.578979 -2.295013,-3.119019 -3.812988,-4.375c4.635986,-1.412964 9.286011,-2.838013 13.937988,-4.281982c2.359009,0.742004 3.926025,1.882996 5.218994,3.156982c1.359985,-2.795959 4.765991,-2.026978 7.906006,-1.687988c-1.113007,-1.572998 -2.295013,-3.088989 -3.812988,-4.343994c3.583984,-1.127991 7.182983,-2.285034 10.781982,-3.437012c1.955994,0.734009 3.346985,1.73999 4.5,2.875c1.359985,-2.794983 4.765991,-1.995972 7.906006,-1.656006c-1.041016,-1.471985 -2.151001,-2.888977 -3.531006,-4.093994c3.938995,-1.281982 7.911987,-2.589966 11.875,-3.906006c1.593994,0.702026 2.804016,1.600037 3.812012,2.593018c1.359985,-2.794983 4.735992,-1.994995 7.875,-1.656006c-0.952026,-1.346008 -1.942017,-2.645996 -3.156006,-3.781006c2.161011,-0.72998 4.329987,-1.47699 6.5,-2.218994c1.867981,0.729004 3.22699,1.713013 4.343994,2.812988c1.359985,-2.795959 4.734985,-2.026978 7.875,-1.687988c-1.046997,-1.479004 -2.14801,-2.916016 -3.531982,-4.125c3.911987,-1.361023 7.839966,-2.721008 11.781982,-4.125c1.647034,0.71698 2.876038,1.642029 3.906006,2.656006c1.359985,-2.794983 4.734985,-2.026978 7.875,-1.687012c-1.013977,-1.432983 -2.083008,-2.815979 -3.406006,-4c2.458984,-0.891968 4.934021,-1.776978 7.406006,-2.687988c2.510986,0.73999 4.161987,1.901001 5.5,3.218994c1.359985,-2.794983 4.734985,-2.026978 7.875,-1.687012c-1.210022,-1.710999 -2.510986,-3.344971 -4.218994,-4.656982c0.072021,-0.017029 0.146973,-0.046021 0.218994,-0.062012c6.182983,4.612976 13.117981,9.218994 15.562012,16.562012c3.914001,11.755981 30.555969,55.60199 74.687988,73.468994c-55.515991,-62.565979 -64.981995,-126.151001 3.343994,-191.468994c-28.976013,7.626007 -45.393005,25.43399 -61.781982,43.125c-21.51001,23.218994 -15.478027,32.778992 -32.343018,42.5c-0.10498,-0.026001 -0.208984,-0.067017 -0.312988,-0.093018c2.015991,-1.453003 3.41803,-3.365967 4.718994,-5.343994c-3.125977,0.445007 -6.484009,1.341003 -7.937988,-1.406006c-1.624023,1.712036 -3.768005,3.230042 -7.5,4c-2.255005,-0.601013 -4.502014,-1.221008 -6.781006,-1.843994c1.994995,-1.440979 3.39502,-3.315002 4.687988,-5.281006c-3.125977,0.445007 -6.484009,1.341003 -7.937988,-1.406982c-1.539978,1.622986 -3.525024,3.052002 -6.906006,3.843994c-0.01001,-0.002991 -0.021973,0.002991 -0.031006,0c-3.636963,-1.028015 -7.310974,-2.083984 -11,-3.156006c2.507019,-1.492004 4.109009,-3.650024 5.593018,-5.906006c-3.125977,0.445007 -6.483032,1.341003 -7.937012,-1.406982c-1.752014,1.846985 -4.096985,3.432007 -8.406006,4.125c-1.544983,-0.458008 -3.072998,-0.880005 -4.625,-1.343018c2.309021,-1.47998 3.835968,-3.539001 5.25,-5.687988c-3.125977,0.446014 -6.484009,1.341003 -7.937988,-1.406006c-1.645996,1.734009 -3.832001,3.21698 -7.656006,3.968994c-3.403046,-1.026978 -6.783997,-2.020996 -10.218994,-3.062988c2.481964,-1.48999 4.090973,-3.636993 5.562988,-5.875c-3.125977,0.446014 -6.484009,1.341003 -7.937988,-1.406006c-1.71698,1.809998 -4.010986,3.378998 -8.156006,4.093994c-3.008026,-0.914001 -6.003998,-1.833984 -9.031006,-2.75c2.473022,-1.490997 4.059021,-3.636993 5.531006,-5.875c-3.125977,0.445007 -6.484009,1.341003 -7.937988,-1.406982c-1.721008,1.815002 -4.022064,3.381989 -8.187012,4.093994c-4.060974,-1.221008 -8.098999,-2.444 -12.187988,-3.656006c2.083008,-1.453979 3.515991,-3.386993 4.843994,-5.406006c-3.126038,0.445007 -6.483032,1.341003 -7.937012,-1.406982c-1.540009,1.623993 -3.526001,3.052002 -6.906982,3.843994c-0.009033,-0.002991 -0.020996,0.002991 -0.031006,0c-3.860992,-1.127991 -7.746033,-2.237 -11.625,-3.343994c1.965973,-1.434998 3.343994,-3.302002 4.625,-5.25c-3.126038,0.445984 -6.483032,1.341003 -7.937012,-1.406006c-1.52002,1.60199 -3.481018,3.014008 -6.781982,3.812988c-2.912018,-0.810974 -5.830994,-1.61499 -8.75,-2.406982c1.938965,-1.432007 3.294006,-3.289001 4.562988,-5.218018c-3.126038,0.445007 -6.484009,1.341003 -7.937988,-1.406982c-1.55304,1.638 -3.533997,3.085999 -6.968018,3.875c-3.142029,-0.822998 -6.29303,-1.643005 -9.437988,-2.437012c21.918976,-10.181 -11.421021,-15.109985 -5.937012,-31.781006c5.638,-17.142975 30.381989,-43.223999 53.093018,-56.656982z" id="path3272"/>
  </g>
  <g id="g3515">
   <path d="m428.076721,5c-26.947021,10.992981 -52.412994,22.923004 -95.906006,76.75l-9.312012,-7.687012c-2.509033,-1.72998 -6.794006,-2.927002 -9.937988,-4.656006l-8.843994,-2.937988l-9.781006,-4.281006l-6.937012,-1.875c-6.75,-0.371002 -12.625,-1.397003 -13.25,-6.531006c-2.932983,-1.056976 -6.263977,3.507019 -8.875,-2.437988c-2.809021,0.638 -5.65802,1.415009 -7.125,-3.312012l-4.406998,-2.062988c-5.688019,1.895996 -7.171997,-1.821014 -8.843018,-5.281006c-4.187988,2.391998 -6.722992,1.84201 -8.156982,-3.875c-5.136993,1.608002 -9.300995,-0.169006 -11.687012,-8.187988c-5.744995,-0.276001 -8.485992,-4.675995 -8.718994,-12.531006c-2.391998,0.727997 -7.088013,0.963989 -7.093994,-9.031006c-11.445007,23.03302 -17.878998,46.562012 -22.468002,70.281006l8.593002,0.343994c-61.966003,7.868011 -104.303009,27.815002 -135.812004,47.406006c-22.604004,14.054016 -53.089699,31.513977 -52.281502,37.781006c0.800598,6.208008 41.955498,21.512024 36.843498,23.75c-3.474998,1.521973 -42.858902,-2.820984 -38.780998,5.781982c8.465401,9.778992 41.910004,26.734009 84.156006,38.812012c29.416992,8.409973 63.084991,14.059998 95.187988,16.875c16.552002,16.075012 13.177002,34.916992 37.5,55.093994c5.455994,3.598022 3.638,-11.990967 10.062012,-26.093994c6.856995,-15.052002 8.371002,-27.585022 -5.437012,-26.875l-0.875,-0.062012c48.537003,0.421997 90.240005,-11.44696 134.969009,-25.718994c33.895996,29.078979 53.85199,34.114014 74.968018,38.437012c-17.914001,-6.273987 -37.427002,-20.244019 -41.875,-30.437012c-4.272034,-9.791016 21.304962,-16.005005 5.281982,-20.312988c4.168976,-1.309998 8.396973,-2.580994 12.656006,-3.875c2.766968,0.739014 4.552002,1.948975 5.968994,3.343994c1.359985,-2.794983 4.734985,-2.026978 7.875,-1.687012c-1.194,-1.687012 -2.484009,-3.291992 -4.156982,-4.593994c4.212006,-1.253967 8.406982,-2.541016 12.625,-3.812988c2.407959,0.742004 4.007996,1.901978 5.312988,3.187988c1.359985,-2.794983 4.734985,-1.995972 7.875,-1.656006c-1.117004,-1.578979 -2.295013,-3.119019 -3.812988,-4.375c4.635986,-1.412964 9.286011,-2.838013 13.937988,-4.281982c2.359009,0.742004 3.926025,1.882996 5.218994,3.156982c1.359985,-2.795959 4.765991,-2.026978 7.906006,-1.687988c-1.113007,-1.572998 -2.295013,-3.088989 -3.812988,-4.343994c3.583984,-1.127991 7.182983,-2.285034 10.781982,-3.437012c1.955994,0.734009 3.346985,1.73999 4.5,2.875c1.359985,-2.794983 4.765991,-1.995972 7.906006,-1.656006c-1.041016,-1.471985 -2.151001,-2.888977 -3.531006,-4.093994c3.938995,-1.281982 7.911987,-2.589966 11.875,-3.906006c1.593994,0.702026 2.804016,1.600037 3.812012,2.593018c1.359985,-2.794983 4.735992,-1.994995 7.875,-1.656006c-0.952026,-1.346008 -1.942017,-2.645996 -3.156006,-3.781006c2.161011,-0.72998 4.329987,-1.47699 6.5,-2.218994c1.867981,0.729004 3.22699,1.713013 4.343994,2.812988c1.359985,-2.795959 4.734985,-2.026978 7.875,-1.687988c-1.046997,-1.479004 -2.14801,-2.916016 -3.531982,-4.125c3.911987,-1.361023 7.839966,-2.721008 11.781982,-4.125c1.647034,0.71698 2.876038,1.642029 3.906006,2.656006c1.359985,-2.794983 4.734985,-2.026978 7.875,-1.687012c-1.013977,-1.432983 -2.083008,-2.815979 -3.406006,-4c2.458984,-0.891968 4.934021,-1.776978 7.406006,-2.687988c2.510986,0.73999 4.161987,1.901001 5.5,3.218994c1.359985,-2.794983 4.734985,-2.026978 7.875,-1.687012c-1.218018,-1.721985 -2.525024,-3.372009 -4.25,-4.687988c0.082031,-0.018982 0.16803,-0.044006 0.25,-0.062012c6.186035,4.617004 13.116028,9.244019 15.562012,16.593018c3.914001,11.755981 30.555969,55.60199 74.687988,73.468994c-55.515991,-62.565979 -64.981995,-126.151001 3.343994,-191.468994c-28.976013,7.626007 -45.393005,25.43399 -61.781982,43.125c-21.51001,23.218994 -15.478027,32.778992 -32.343018,42.5c-0.10498,-0.026001 -0.208984,-0.067017 -0.312988,-0.093018c2.015991,-1.453003 3.41803,-3.365967 4.718994,-5.343994c-3.125977,0.445007 -6.484009,1.341003 -7.937988,-1.406006c-1.624023,1.712036 -3.768005,3.230042 -7.5,4c-2.236023,-0.596008 -4.48999,-1.226013 -6.75,-1.843994c1.984985,-1.438965 3.367981,-3.322021 4.656982,-5.281006c-3.125977,0.445007 -6.484009,1.341003 -7.937988,-1.406982c-1.539978,1.622986 -3.525024,3.052002 -6.906006,3.843994c-0.01001,-0.002991 -0.021973,0.002991 -0.031006,0c-3.641968,-1.030029 -7.304993,-2.08197 -11,-3.156006c2.507019,-1.492004 4.109009,-3.650024 5.593018,-5.906006c-3.125977,0.445007 -6.483032,1.341003 -7.937012,-1.406982c-1.760986,1.856018 -4.119019,3.437012 -8.468994,4.125c-1.517059,-0.450012 -3.036987,-0.888 -4.562012,-1.343018c2.309021,-1.47998 3.835968,-3.539001 5.25,-5.687988c-3.125977,0.446014 -6.484009,1.341003 -7.937988,-1.406006c-1.640991,1.730011 -3.81897,3.215027 -7.625,3.968994c-3.380981,-1.020996 -6.836975,-2.026978 -10.25,-3.062988c2.481964,-1.48999 4.090973,-3.636993 5.562988,-5.875c-3.125977,0.446014 -6.484009,1.341003 -7.937988,-1.406006c-1.71698,1.809998 -4.010986,3.378998 -8.156006,4.093994c-2.989014,-0.90799 -6.023041,-1.838989 -9.031006,-2.75c2.473022,-1.490997 4.059021,-3.636993 5.531006,-5.875c-3.125977,0.445007 -6.484009,1.341003 -7.937988,-1.406982c-1.71701,1.809998 -4.01001,3.378998 -8.156006,4.093994c-4.049011,-1.217987 -8.109985,-2.446991 -12.187012,-3.656006c2.070984,-1.453003 3.489014,-3.393982 4.812012,-5.406006c-3.126038,0.445007 -6.483032,1.341003 -7.937012,-1.406982c-1.540009,1.623993 -3.526001,3.052002 -6.906982,3.843994c-3.879028,-1.132996 -7.759033,-2.231995 -11.656006,-3.343994c1.965973,-1.434998 3.343994,-3.302002 4.625,-5.25c-3.126038,0.445984 -6.483032,1.341003 -7.937012,-1.406006c-1.52002,1.60199 -3.481018,3.014008 -6.781982,3.812988c-2.910034,-0.810974 -5.833008,-1.61499 -8.75,-2.406982c1.936951,-1.429993 3.294006,-3.289001 4.562988,-5.218018c-3.126038,0.445007 -6.484009,1.341003 -7.937988,-1.406982c-1.548035,1.632996 -3.55304,3.053986 -6.968018,3.843994c-3.125977,-0.819 -6.246033,-1.615997 -9.375,-2.406006c21.809998,-10.164001 -11.47998,-15.122986 -6,-31.781006c5.638,-17.142975 30.381989,-43.223999 53.093018,-56.656982z" id="path3330"/>
   <g id="g3309">
    <path d="m359.593689,223.346008c34.675018,30.054016 54.848022,35.156982 76.22699,39.534973c-17.914001,-6.273987 -37.420959,-20.263 -41.867981,-30.455994c-4.328003,-9.919006 22.013,-16.133972 4.658997,-20.448975" id="path2398"/>
    <path d="m557.2677,145.050964c18.394043,-9.964966 11.535034,-19.420959 33.551025,-43.185974c16.388977,-17.69101 32.822998,-35.492981 61.797974,-43.118988c-68.325989,65.317993 -58.875,128.907013 -3.359009,191.472992c-44.131958,-17.867004 -70.761963,-61.710999 -74.674988,-73.46698c-2.469971,-7.419006 -9.533997,-12.052002 -15.763977,-16.71405l-1.551025,-14.987z" id="path2400"/>
    <path d="m183.624695,247.117981c17.720993,16.283997 13.689011,35.491028 38.500992,56.072998c5.456024,3.598022 3.665009,-11.992004 10.08902,-26.094971c6.856995,-15.051025 8.369995,-27.587036 -5.438019,-26.877014" id="path2402"/>
    <path d="m186.725693,77.350983c4.58902,-23.718994 11.035004,-47.250977 22.480011,-70.283997c0.005981,9.994995 4.70401,9.740997 7.096008,9.013c0.233002,7.854004 2.970978,12.266022 8.714996,12.542023c2.386993,8.018982 6.554993,9.800995 11.691986,8.191986c1.43399,5.717987 3.949005,6.278992 8.136017,3.885986c1.67099,3.460022 3.164001,7.159027 8.85199,5.263l4.42601,2.057007c1.46701,4.727997 4.311005,3.947998 7.119965,3.30899c2.611023,5.945007 5.91803,1.387024 8.851013,2.444c0.625,5.134003 6.522034,6.167999 13.272034,6.539001l6.940979,1.873016l9.765991,4.278992l8.833008,2.931c3.143982,1.729004 7.437012,2.942017 9.946014,4.67099l11.160004,9.228027l-147.286026,-5.943024z" id="path2404"/>
    <path d="m331.427673,82.684998c43.960999,-54.638 69.536011,-66.627991 96.641022,-77.686005c-22.710968,13.433014 -47.441986,39.503998 -53.079987,56.647003c-5.487,16.682007 27.906982,21.618011 5.906006,31.812012" id="path2406"/>
    <path d="m397.326721,92c-2.05304,2.165009 -4.880005,3.97699 -10.781006,4.406982l7.468994,4.75c6.171997,-0.789001 8.875977,-4.139984 11.25,-7.75c-3.126038,0.445007 -6.484009,1.341003 -7.937988,-1.406982zm18.906982,5.218994c-2.054016,2.164001 -4.880981,3.97699 -10.781982,4.406006l7.468994,4.75c6.171997,-0.787994 8.875977,-4.140015 11.25,-7.75c-3.126038,0.445984 -6.483032,1.341003 -7.937012,-1.406006zm21.875,6.156006c-2.054016,2.165009 -4.880981,3.97699 -10.781982,4.406982l7.468994,4.75c6.171997,-0.789001 8.875977,-4.139984 11.25,-7.75c-3.126038,0.445007 -6.483032,1.341003 -7.937012,-1.406982zm23.468018,6.375c-2.052979,2.165009 -4.880005,3.97699 -10.781006,4.406982l7.468994,4.75c6.171997,-0.789001 8.875977,-4.140991 11.25,-7.75c-3.125977,0.445007 -6.484009,1.341003 -7.937988,-1.406982zm19.593994,5.937988c-2.052979,2.164001 -4.880005,3.97702 -10.781006,4.406006l7.437012,4.75c6.171997,-0.789001 8.906982,-4.140015 11.281982,-7.75c-3.125977,0.446014 -6.484009,1.341003 -7.937988,-1.406006zm20.25,6.375c-2.052979,2.164001 -4.880005,3.97699 -10.781006,4.406006l7.468994,4.75c6.171021,-0.789001 8.875,-4.140015 11.25,-7.75c-3.125977,0.446014 -6.484009,1.341003 -7.937988,-1.406006zm15.718994,4.312012c-2.052979,2.164978 -4.880005,3.97699 -10.781006,4.406982l7.468018,4.75c6.171997,-0.789001 8.875977,-4.140991 11.25,-7.75c-3.125977,0.445007 -6.483032,1.341003 -7.937012,-1.406982zm20.281006,6.625c-2.052979,2.164978 -4.880005,3.97699 -10.781006,4.406982l7.468994,4.75c6.171021,-0.789001 8.875,-4.140991 11.25,-7.75c-3.125977,0.445007 -6.484009,1.341003 -7.937988,-1.406982zm17.531006,4.531982c-2.052979,2.164001 -4.880005,4.007996 -10.781006,4.437012l7.468994,4.75c6.171997,-0.789001 8.875977,-4.171021 11.25,-7.781006c-3.125977,0.445007 -6.484009,1.341003 -7.937988,-1.406006z" id="path3317"/>
    <path d="m551.514709,157.531982l-7.312988,5.031006c5.912964,0.229004 8.812012,1.937012 10.937988,4.031006c1.359985,-2.794983 4.734985,-2.026978 7.875,-1.687012c-2.494995,-3.528015 -5.304993,-6.795959 -11.5,-7.375zm-17.375,5.156006l-7.312988,5c5.912964,0.229004 8.812012,1.968994 10.937988,4.062012c1.359985,-2.794983 4.734985,-2.026978 7.875,-1.687012c-2.494995,-3.528015 -5.304993,-6.796021 -11.5,-7.375zm-20.031006,7.281006l-7.312988,5.031006c5.911987,0.229004 8.812012,1.937988 10.937988,4.031982c1.359985,-2.795959 4.734985,-2.026978 7.875,-1.687988c-2.494995,-3.528015 -5.304993,-6.796021 -11.5,-7.375zm-15.562988,4.875l-7.312012,5c5.911987,0.229004 8.812012,1.937988 10.937012,4.031006c1.359985,-2.794983 4.735992,-1.994995 7.875,-1.656006c-2.494995,-3.528015 -5.305023,-6.796021 -11.5,-7.375zm-20.062012,7.062988l-7.281982,5c5.912964,0.229004 8.781006,1.937012 10.906982,4.031006c1.359985,-2.794983 4.765991,-1.995972 7.906006,-1.656006c-2.494995,-3.528015 -5.336029,-6.795959 -11.531006,-7.375zm-19.375,6.562012l-7.281982,5.031006c5.912964,0.229004 8.781006,1.937988 10.906982,4.031982c1.359985,-2.795959 4.765991,-2.026978 7.906006,-1.687988c-2.494995,-3.528015 -5.336029,-6.796021 -11.531006,-7.375zm-23.218994,7.187988l-7.312988,5c5.912964,0.229004 8.811951,1.937012 10.937988,4.031006c1.359985,-2.794983 4.734985,-1.995972 7.875,-1.656006c-2.494995,-3.528015 -5.304993,-6.795959 -11.5,-7.375zm-21.656006,6.875l-7.312988,5c5.911987,0.229004 8.812012,1.968018 10.937988,4.062012c1.359985,-2.794983 4.734985,-2.026978 7.875,-1.687012c-2.494995,-3.528015 -5.305023,-6.795959 -11.5,-7.375z" id="path3349"/>
    <g display=" inline" id="layer2">
     <path d="m595.28772,153.846008c-18.072998,-14.916992 -19.38501,-5.221008 -29.88501,-7.757019c-94.127991,-22.730988 -213.911011,-73.084991 -318.311996,-71.880981c-91.298019,1.052979 -147.96402,26.257996 -187.56501,50.880981c-22.603004,14.054016 -53.086906,31.52301 -52.278702,37.789978c0.800598,6.208008 41.935699,21.494019 36.8237,23.732056c-3.474998,1.521973 -42.865303,-2.801025 -38.787498,5.801941c8.465401,9.779053 41.932495,26.717041 84.178497,38.796021c42.285995,12.088989 93.367996,18.491028 135.939011,18.934998c68.991989,0.720032 124.090012,-23.414001 193.637009,-44.067017c44.421997,-13.191956 89.028992,-27.218994 136.153992,-44.774963c16.679993,-6.213989 25.046997,6.406982 40.096008,-7.455994z" id="path2396"/>
    </g>
    <g display=" inline" id="layer3">
     <path d="m86.840515,157.257385c0,5.522949 -4.667999,10 -10.427002,10c-5.759003,0 -10.427994,-4.477051 -10.427994,-10c0,-5.52301 4.668991,-10 10.427994,-10c5.759003,0 10.427002,4.47699 10.427002,10z" id="path3188"/>
     <path d="m85.772705,157.464966c0.001999,5.032043 -4.25,9.113037 -9.49501,9.113037c-5.244995,0 -9.496994,-4.080994 -9.494995,-9.113037c-0.001999,-5.032959 4.25,-9.113953 9.494995,-9.113953c5.24501,0 9.497009,4.080994 9.49501,9.113953z" id="path3195"/>
     <path d="m75.9207,150.375c-7.429993,-0.585022 -9.903,11.874023 -2.375,13.843994c6.246002,2.460999 13.802002,-5.572021 8.688004,-11.031006c-1.528,-1.872009 -3.886002,-3.03302 -6.313004,-2.812988z" id="path3197"/>
     <path d="m73.375702,150.632996c-7.083008,0.343994 -4.869003,11.869995 1.688004,10.406006c5.821991,-0.905029 5.888,-10.187988 -0.313004,-10.406006c-0.456009,-0.049011 -0.919006,-0.046021 -1.375,0z" id="path3215"/>
     <path d="m73.375702,150.632996c-7.083008,0.343994 -4.869003,11.869995 1.688004,10.406006c5.821991,-0.905029 5.888,-10.187988 -0.313004,-10.406006c-0.456009,-0.049011 -0.919006,-0.046021 -1.375,0z" id="path3225"/>
     <path filter=" url(#filter3267)" d="m120.2547,144.305969c25.854004,64.046997 -2.617004,82.676025 -19.292999,80.386047" id="path3235"/>
     <path filter=" url(#filter3259)" d="m172.235703,153.951965c6.436996,64.047058 -34.544998,82.676025 -53.529999,80.386047" id="path3237"/>
    </g>
   </g>
   <path d="m170.251694,158.838989c63.507019,-37.854004 109.115005,-23.315002 133.708023,-10.861023c-28.328003,22.291016 -55.804031,30.939026 -83.146011,37.453003c5.674988,-29.984985 -25.846008,-25.098999 -50.562012,-26.59198z" id="path3463"/>
   <path d="m35.788696,176.59198c20.104004,9.478027 30.785004,7.869995 31.445999,10.598022c1.662003,6.857971 -3.5,16.878967 -20.554993,2.768982" opacity="0.639098" id="path3473"/>
  </g>
 </g>
</svg>